<?xml version="1.0" standalone="no"?>
<!DOCTYPE svg PUBLIC "-//W3C//DTD SVG 20010904//EN"
 "http://www.w3.org/TR/2001/REC-SVG-20010904/DTD/svg10.dtd">
<svg version="1.0" xmlns="http://www.w3.org/2000/svg"
 width="677.000000pt" height="677.000000pt" viewBox="0 0 677.000000 677.000000"
 preserveAspectRatio="xMidYMid meet">
<metadata>
Created by potrace 1.11, written by Peter Selinger 2001-2013
</metadata>
<g transform="translate(0.000000,677.000000) scale(0.100000,-0.100000)"
fill="#000000" stroke="none">
<path d="M0 3385 l0 -3385 3385 0 3385 0 0 3385 0 3385 -3385 0 -3385 0 0
-3385z m2934 2785 c364 -35 670 -173 906 -410 167 -166 223 -267 281 -504 40
-164 39 -217 -4 -209 -13 3 -35 25 -54 56 -45 74 -107 142 -147 161 -31 15
-39 15 -69 3 -67 -28 -153 -180 -222 -392 -43 -128 -118 -440 -131 -542 -7
-56 -22 -77 -47 -68 -9 4 -45 89 -87 208 -168 468 -241 613 -385 766 -166 175
-401 215 -619 104 -61 -31 -164 -128 -207 -194 -86 -134 -105 -295 -55 -462
68 -228 200 -395 381 -482 122 -59 166 -66 440 -75 273 -9 389 -26 546 -79
255 -87 424 -202 669 -456 643 -667 1411 -1408 1987 -1918 94 -84 174 -158
177 -164 3 -7 3 -19 0 -26 -8 -21 -187 -136 -239 -153 -69 -24 -141 -15 -210
27 -45 27 -1053 940 -1558 1411 -65 61 -120 109 -122 106 -2 -2 315 -355 706
-783 391 -429 715 -791 722 -804 14 -29 3 -38 -99 -81 -174 -72 -292 -78 -410
-20 -83 40 -195 147 -510 485 -125 135 -232 245 -236 245 -4 0 -8 -4 -8 -10 0
-5 131 -170 290 -367 160 -196 290 -363 290 -370 0 -31 -54 -37 -345 -37 -262
0 -639 23 -830 49 -24 4 -36 2 -30 -3 6 -5 170 -86 365 -181 195 -95 370 -184
388 -198 43 -32 72 -80 72 -119 0 -45 -48 -133 -84 -155 -37 -23 -112 -25
-161 -5 -58 25 -639 352 -840 474 -104 64 -224 133 -265 155 -72 37 -78 39
-155 35 -86 -4 -76 0 -291 -111 -130 -67 -189 -79 -258 -53 -80 31 -153 141
-143 216 3 21 16 54 30 75 24 35 110 114 145 134 9 5 15 11 12 13 -8 7 -471
260 -522 286 -63 32 -95 25 -193 -39 -135 -90 -204 -108 -265 -72 -39 23 -70
82 -70 133 0 55 29 102 88 142 98 65 110 88 70 126 -13 11 -99 63 -193 115
-93 52 -201 113 -240 137 -38 24 -110 62 -160 85 -94 44 -122 66 -125 100 -4
39 0 54 27 85 24 30 30 32 74 28 33 -4 62 -15 96 -40 27 -19 106 -62 175 -96
l126 -60 -35 82 c-142 329 -246 662 -293 939 -59 347 -50 892 20 1241 99 492
307 884 598 1127 350 292 792 431 1236 389z m-149 -1071 c69 -26 151 -103 185
-174 29 -60 38 -165 20 -230 -27 -97 -119 -160 -231 -159 -76 1 -135 32 -203
104 -100 108 -127 241 -73 352 56 114 173 155 302 107z m1179 -188 c101 -24
149 -139 111 -267 -55 -184 -312 -239 -393 -84 -20 38 -23 55 -18 113 9 122
73 203 184 233 58 15 67 16 116 5z"/>
</g>
</svg>
